<svg xmlns="http://www.w3.org/2000/svg" width="64" height="64" viewBox="0 0 1024 1024" fill="#6F4E37" role="img" aria-label="Email">
  <title>Email</title>
  <!-- Simple Line Icons: envelope-letter (U+E01F), extracted from wechi.info footer font -->
  <path d="M1023.3 473.3L1023.3 473.3C1023.9 476.1 1024.2 479.0 1023.9 481.9L1023.9 960.1C1023.9 995.3 995.1 1024.1 959.9 1024.1L63.9 1024.1C28.8 1024.1-0.1 995.3-0.1 960.1L-0.1 480.6C-0.1 458.4 11.5 438.8 28.8 427.3L191.9 264.2L191.9 158.8C191.9 141.1 206.3 126.8 223.9 126.8L329.6 126.8L446.0 27.1C482.3-9.2 545.6-9.2 581.8 27.1L698.6 126.8L799.9 126.8C817.6 126.8 831.9 141.1 831.9 158.8L831.9 262.0L999.1 430.4C1003.4 433.8 1007.2 437.6 1010.5 441.9L1011.4 442.8L1011.2 442.8C1017.7 451.6 1021.9 462.0 1023.3 473.3ZM268.9 725.5L63.9 544.7L63.9 915.6ZM330.6 755.5L110.0 960.1L917.3 960.1L533.5 612.2C527.3 607.4 518.1 604.2 508.9 604.2C499.9 604.2 491.3 607.2 484.1 613.1L346.2 741.0C345.0 743.2 343.7 745.3 341.9 747.3C338.7 751.0 334.8 753.7 330.6 755.5ZM758.3 729.7L959.9 912.5L959.9 550.8ZM897.9 416.6L831.9 350.6L831.9 578.8L951.9 472.4L897.0 416.6ZM491.3 72.3L426.8 126.8L601.2 126.8L536.6 72.3C530.5 66.3 522.5 62.9 513.9 62.9C505.4 62.9 497.3 66.3 491.3 72.3ZM767.9 190.8L255.9 190.8L255.9 628.8L316.0 681.8L442.6 564.3C482.5 532.1 536.6 533.4 574.3 562.9L710.6 686.5L767.9 635.6ZM103.8 442.8L103.8 442.8L102.3 442.8L75.3 469.4L191.9 572.3L191.9 354.7Z"/>
</svg>
