<svg xmlns="http://www.w3.org/2000/svg" width="64" height="64" viewBox="0 0 1024 1024" fill="#6F4E37" role="img" aria-label="Incoming call">
  <title>Incoming call</title>
  <!-- Simple Line Icons: call-in (U+E047), extracted from wechi.info footer font -->
  <path d="M1000.4 771.6C1026.1 789.7 1036.4 834.1 1008.1 874.5C1007.1 876.0 899.3 1024.7 838.0 1024.7L836.6 1024.7C661.5 1019.1 456.4 849.6 315.2 708.3C174.0 567.0 4.5 362.0-1.0 187.6C-3.0 125.5 147.5 16.3 149.1 15.3C164.6 4.4 182.6-0.7 199.5-0.7C221.0-0.7 240.8 7.6 251.8 22.8C263.5 39.0 377.1 211.2 389.5 230.8C402.8 251.7 400.9 282.7 384.6 313.7C375.9 330.1 347.5 380.1 333.6 404.5C348.8 426.2 387.9 477.2 467.1 556.4C546.8 636.2 597.4 674.9 619.0 690.0C643.4 676.1 693.4 647.6 709.9 638.9C726.8 630.0 744.2 625.5 759.8 625.5C772.0 625.5 783.1 628.2 792.3 633.8C813.3 646.6 984.7 760.6 1000.4 771.6ZM956.1 837.3L956.1 837.3C961.0 830.3 961.4 824.7 961.0 822.2C934.6 804.1 785.1 704.9 760.6 689.5C760.4 689.5 760.1 689.5 759.8 689.5C757.8 689.5 750.4 689.9 739.7 695.6C726.2 702.6 684.9 726.1 650.7 745.6L615.4 765.7L582.2 742.4C557.6 725.1 504.0 683.8 421.9 601.6C340.0 519.8 298.6 466.1 281.2 441.3L257.9 408.1L278.0 372.8C303.9 327.5 322.1 295.0 327.9 283.9C333.4 273.5 334.4 266.2 334.3 263.3C316.8 236.0 220.2 89.7 202.2 63.5C201.5 63.4 200.6 63.3 199.5 63.3C194.8 63.3 189.7 64.9 185.6 67.8C129.9 108.1 71.1 166.1 63.0 188.7C68.6 308.3 174.1 476.6 360.5 663.0C546.9 849.5 715.3 955.0 835.4 960.6C857.9 952.2 915.5 893.5 956.1 837.3ZM643.8 376.5C639.6 372.4 638.1 366.6 638.3 360.1L639.5 348.4C639.5 348.1 638.7 348.0 638.7 347.8L639.3 116.8C639.6 103.8 650.3 96.1 663.2 95.8L679.7 95.8C692.6 95.5 702.8 106.8 702.6 119.7L701.7 274.5L964.3 12.2C976.8-0.3 997.1-0.3 1009.6 12.2C1022.1 24.7 1022.1 45.0 1009.6 57.5L747.6 319.1L899.1 319.5C912.1 319.2 924.1 328.1 926.0 343.3L926.0 359.8C925.7 372.7 915.0 383.4 902.1 383.7L672.6 382.7C672.3 382.7 672.2 382.8 671.9 382.8L660.2 383.1C653.8 383.2 648.0 380.7 643.8 376.5Z"/>
</svg>
